<?xml version="1.0" encoding="UTF-8"?>
<svg version="1.1" xmlns="http://www.w3.org/2000/svg" width="512" height="512">
<path d="M0 0 C1.01790619 0.00215515 2.03581238 0.0043103 3.08456421 0.00653076 C17.69363523 0.05620146 32.02575853 0.30709809 46.375 3.3125 C47.34985352 3.51117676 48.32470703 3.70985352 49.32910156 3.91455078 C97.7109774 14.03517194 141.69928269 35.9516877 177.375 70.3125 C178.3640332 71.26068604 178.3640332 71.26068604 179.37304688 72.22802734 C188.86130305 81.37247479 197.6012044 90.66984009 205.375 101.3125 C206.23306152 102.46355017 207.09113451 103.61459177 207.94921875 104.765625 C213.98736829 112.95680614 219.34595521 121.47054105 224.375 130.3125 C224.73948242 130.94430176 225.10396484 131.57610352 225.47949219 132.22705078 C247.08534998 169.97532572 256.85198095 212.74189997 256.6875 255.9375 C256.68534485 256.95540619 256.6831897 257.97331238 256.68096924 259.02206421 C256.63129854 273.63113523 256.38040191 287.96325853 253.375 302.3125 C253.07698486 303.77478027 253.07698486 303.77478027 252.77294922 305.26660156 C242.65232806 353.6484774 220.7358123 397.63678269 186.375 433.3125 C185.74287598 433.97185547 185.11075195 434.63121094 184.45947266 435.31054688 C175.31502521 444.79880305 166.01765991 453.5387044 155.375 461.3125 C154.22394983 462.17056152 153.07290823 463.02863451 151.921875 463.88671875 C143.73224019 469.92427396 135.22961724 475.30707302 126.375 480.3125 C125.66778809 480.7146875 124.96057617 481.116875 124.23193359 481.53125 C101.09654164 494.5566741 75.92537591 503.30551461 49.9375 508.625 C49.21860596 508.77235596 48.49971191 508.91971191 47.7590332 509.0715332 C33.08339502 511.86090125 18.55831162 512.66142619 3.64770508 512.62817383 C0.70811513 512.6250221 -2.2304558 512.64854926 -5.16992188 512.67382812 C-18.54306192 512.71848737 -31.43916711 511.51301542 -44.625 509.3125 C-46.33055054 509.03031616 -46.33055054 509.03031616 -48.07055664 508.74243164 C-91.33802759 500.97044532 -132.38793216 480.98345309 -165.625 452.3125 C-166.37007813 451.67828125 -167.11515625 451.0440625 -167.8828125 450.390625 C-181.38779833 438.57948485 -194.05918743 425.82889772 -204.625 411.3125 C-205.48149066 410.16255169 -206.33826433 409.01281411 -207.1953125 407.86328125 C-213.23534209 399.67315742 -218.61867614 391.16870382 -223.625 382.3125 C-224.0271875 381.60528809 -224.429375 380.89807617 -224.84375 380.16943359 C-237.8691741 357.03404164 -246.61801461 331.86287591 -251.9375 305.875 C-252.08485596 305.15610596 -252.23221191 304.43721191 -252.3840332 303.6965332 C-255.35789088 288.05024391 -255.99800362 272.57681954 -255.9375 256.6875 C-255.93534485 255.66959381 -255.9331897 254.65168762 -255.93096924 253.60293579 C-255.88129854 238.99386477 -255.63040191 224.66174147 -252.625 210.3125 C-252.42632324 209.33764648 -252.22764648 208.36279297 -252.02294922 207.35839844 C-241.90232806 158.9765226 -219.9858123 114.98821731 -185.625 79.3125 C-184.99287598 78.65314453 -184.36075195 77.99378906 -183.70947266 77.31445312 C-174.56502521 67.82619695 -165.26765991 59.0862956 -154.625 51.3125 C-153.47394983 50.45443848 -152.32290823 49.59636549 -151.171875 48.73828125 C-142.98224019 42.70072604 -134.47961724 37.31792698 -125.625 32.3125 C-124.91778809 31.9103125 -124.21057617 31.508125 -123.48193359 31.09375 C-100.34654164 18.0683259 -75.17537591 9.31948539 -49.1875 4 C-48.46860596 3.85264404 -47.74971191 3.70528809 -47.0090332 3.5534668 C-31.36274391 0.57960912 -15.88931954 -0.06050362 0 0 Z " fill="#252A3F" transform="translate(255.625,-0.3125)"/>
<path d="M0 0 C1.71595918 -0.1286784 1.71595918 -0.1286784 3.46658421 -0.25995636 C18.50018184 -1.33426051 33.54518393 -1.98649037 48.609375 -2.41601562 C49.33138548 -2.43743244 50.05339597 -2.45884926 50.79728556 -2.48091507 C115.86130518 -4.36250235 115.86130518 -4.36250235 138.72744751 16.36022949 C149.60793154 26.80299373 158.83436263 39.15925916 166.56541443 52.07189941 C170.8790968 58.42876264 175.91656469 63.54642728 181.94637656 68.2782011 C197.87114533 80.81575506 213.63908988 94.23305077 216.32506955 115.26453066 C217.34295456 126.64244846 216.99293008 138.05090933 216.52560854 149.44728279 C216.30894469 155.69644547 216.3056172 161.94626945 216.27572632 168.1986084 C216.1973189 178.66170999 215.98621766 189.11456262 215.67529297 199.57324219 C215.35679878 210.29048817 215.12996445 221.00232059 215.01904297 231.72363281 C215.00870234 232.71957878 215.00870234 232.71957878 214.99815281 233.73564488 C214.96390293 237.07000832 214.93059182 240.40438026 214.8974793 243.73875523 C214.68792881 263.50346733 214.41371886 283.27280724 213.85176849 303.03091049 C213.7943584 305.1506317 213.74460732 307.27057734 213.7033577 309.39067459 C213.37169396 325.83287802 211.4156001 338.83638319 199.61328125 351.16992188 C190.04132158 360.34944826 179.93646377 363.23466362 166.86972046 363.2311554 C166.12153821 363.23483208 165.37335595 363.23850877 164.60250151 363.24229687 C162.11178423 363.25325238 159.62110877 363.25716361 157.13037109 363.26098633 C155.33764516 363.26725712 153.54492052 363.27390446 151.75219727 363.28089905 C145.87907809 363.30186822 140.00595887 363.31229459 134.1328125 363.32226562 C132.10519014 363.32631582 130.07756792 363.33043282 128.04994583 363.33461571 C118.52185803 363.35365149 108.9937779 363.36788604 99.46567476 363.37622768 C88.49244555 363.38599505 77.51941832 363.41230839 66.54626024 363.45272857 C58.04747076 363.48295277 49.54873899 363.49770251 41.04989684 363.50100869 C35.98182607 363.50335187 30.91397149 363.51221693 25.84595871 363.53746986 C21.07373002 363.56086633 16.30185812 363.56493758 11.52958679 363.55470848 C9.78701714 363.55421582 8.04442922 363.56045577 6.30191422 363.57426453 C-9.4833969 363.692267 -22.340166 361.35363082 -34.3515625 350.27539062 C-44.41489545 339.7066938 -46.55499498 328.3610535 -46.48828125 314.34179688 C-46.4868663 313.21828827 -46.48545135 312.09477966 -46.48399353 310.93722534 C-46.47841164 307.36111754 -46.46586241 303.78507314 -46.453125 300.20898438 C-46.44810766 297.77929778 -46.44354516 295.3496102 -46.43945312 292.91992188 C-46.42844814 286.97458787 -46.41172801 281.02929065 -46.390625 275.08398438 C-48.23418579 275.11117554 -48.23418579 275.11117554 -50.11499023 275.13891602 C-51.74722934 275.1535786 -53.37947249 275.16779663 -55.01171875 275.18164062 C-56.22329651 275.20127869 -56.22329651 275.20127869 -57.45935059 275.22131348 C-68.45433709 275.29116727 -76.37148684 271.52707858 -84.390625 264.08398438 C-93.59539463 254.98857834 -97.5747992 245.34399465 -97.69416809 232.46672058 C-97.69325668 231.37490982 -97.69234528 230.28309906 -97.69140625 229.15820312 C-97.69569138 228.01543411 -97.6999765 226.8726651 -97.70439148 225.69526672 C-97.71011926 223.28391175 -97.71064652 220.8725395 -97.70629883 218.46118164 C-97.70314448 214.79412972 -97.72659929 211.12788952 -97.75195312 207.4609375 C-97.75422699 205.11002705 -97.75492921 202.75911445 -97.75390625 200.40820312 C-97.763116 199.32246506 -97.77232574 198.23672699 -97.78181458 197.11808777 C-97.70529389 184.36932162 -94.05654379 175.14565345 -85.28515625 165.85351562 C-78.30486578 159.26856904 -69.90969642 153.91599101 -60.0625 153.98632812 C-59.26328125 153.98955078 -58.4640625 153.99277344 -57.640625 153.99609375 C-56.815625 154.00447266 -55.990625 154.01285156 -55.140625 154.02148438 C-54.30015625 154.02599609 -53.4596875 154.03050781 -52.59375 154.03515625 C-50.52601099 154.04690477 -48.45830876 154.06483916 -46.390625 154.08398438 C-46.39431217 153.48598369 -46.39799934 152.887983 -46.40179825 152.27186108 C-46.49036771 137.68065397 -46.55644042 123.08946281 -46.59787369 108.49804974 C-46.61844623 101.44155371 -46.64646427 94.3852378 -46.69238281 87.32885742 C-46.73670662 80.51425797 -46.75978834 73.69984543 -46.77013397 66.88511086 C-46.77750325 64.29008865 -46.79189357 61.69507623 -46.81354523 59.1001339 C-46.84274113 55.45479928 -46.84657409 51.81022834 -46.84472656 48.16479492 C-46.85910767 47.10095581 -46.87348877 46.0371167 -46.88830566 44.94104004 C-46.81975854 32.37526065 -42.05685931 22.19371037 -33.51171875 13.08007812 C-23.93919953 4.12638843 -12.76903559 0.92332308 0 0 Z " fill="#FEFEFE" transform="translate(198.390625,73.916015625)"/>
<path d="M0 0 C0.82602874 -0.00297112 1.65205747 -0.00594224 2.50311738 -0.0090034 C5.27506314 -0.01768505 8.04696567 -0.01919821 10.81892395 -0.02069092 C12.8048868 -0.02531951 14.79084877 -0.03034423 16.77680969 -0.03573608 C22.17576494 -0.04885911 27.57470774 -0.05530499 32.97367644 -0.05974674 C36.34741556 -0.06267795 39.72115128 -0.06678288 43.09488869 -0.07125092 C53.65240945 -0.08492632 64.20992245 -0.09459246 74.76745147 -0.09845281 C86.95078948 -0.10293217 99.13401522 -0.12047428 111.3173191 -0.1494534 C120.73657307 -0.17107942 130.15579548 -0.1811576 139.57507402 -0.18249393 C145.19969232 -0.1835414 150.82420509 -0.18943688 156.44879723 -0.20731354 C161.74211765 -0.22380979 167.0352534 -0.2259421 172.32859039 -0.21717453 C174.26795001 -0.21640496 176.20731961 -0.22073628 178.14665413 -0.23063278 C180.80160098 -0.24338296 183.45589678 -0.2374589 186.11083984 -0.22705078 C186.8717583 -0.23510719 187.63267675 -0.24316359 188.41665334 -0.25146413 C199.76765783 -0.14794459 209.86097895 5.19596773 218.12287903 12.76544189 C224.36422737 19.3106287 228.95619518 28.35855387 229.04988098 37.44708252 C229.06271622 38.53251343 229.07555145 39.61794434 229.08877563 40.73626709 C229.09985603 42.49867737 229.09985603 42.49867737 229.11116028 44.29669189 C229.11923203 45.50933716 229.12730377 46.72198242 229.13562012 47.97137451 C229.14946441 50.54366628 229.16018501 53.11597644 229.16804504 55.68829346 C229.1851893 59.59718435 229.22906628 63.50521439 229.27326965 67.41387939 C229.28340281 69.91647736 229.29191696 72.4190825 229.29866028 74.92169189 C229.31616837 76.08043823 229.33367645 77.23918457 229.35171509 78.43304443 C229.32196035 89.72898652 226.34733283 98.63440488 218.87287903 107.14044189 C218.37143372 107.74630127 217.8699884 108.35216064 217.35334778 108.97637939 C211.58265529 115.40698075 203.42279683 119.82438927 194.87287903 121.14044189 C192.1197832 121.2388545 189.39190047 121.28827395 186.63896179 121.28761292 C185.40075375 121.29312795 185.40075375 121.29312795 184.1375314 121.29875439 C181.37336359 121.3097614 178.60923341 121.31363001 175.845047 121.31744385 C173.86218141 121.32371077 171.879317 121.33035777 169.89645386 121.33735657 C163.38599969 121.35837281 156.87554536 121.36875694 150.36506653 121.37872314 C148.12133395 121.38277166 145.8776015 121.38688861 143.63386917 121.39107323 C133.09130005 121.41011984 122.54873791 121.42435178 112.00615489 121.4326852 C99.84828386 121.44245484 87.69059501 121.4687696 75.53278816 121.50918609 C66.12792079 121.53937491 56.72310557 121.55415672 47.31819069 121.55746621 C41.7046634 121.55981358 36.09133087 121.56873352 30.47785568 121.59392738 C25.19350565 121.61726131 19.9094779 121.62141986 14.62508965 121.611166 C12.69140105 121.61067182 10.75769629 121.61695729 8.82405663 121.63072205 C-5.78828513 121.72887597 -16.95739265 120.50780788 -28.12712097 110.14044189 C-37.3318906 101.04503586 -41.31129517 91.40045217 -41.43066406 78.5231781 C-41.42975266 77.43136734 -41.42884125 76.33955658 -41.42790222 75.21466064 C-41.43218735 74.07189163 -41.43647247 72.92912262 -41.44088745 71.75172424 C-41.44661523 69.34036927 -41.44714249 66.92899702 -41.4427948 64.51763916 C-41.43964045 60.85058724 -41.46309526 57.18434704 -41.4884491 53.51739502 C-41.49072297 51.16648457 -41.49142518 48.81557197 -41.49040222 46.46466064 C-41.49961197 45.37892258 -41.50882172 44.29318451 -41.51831055 43.17454529 C-41.44178987 30.42577914 -37.79303976 21.20211097 -29.02165222 11.90997314 C-20.38310214 3.76068608 -11.77359654 -0.01321329 0 0 Z " fill="#EEAC4C" transform="translate(142.1271209716797,227.85955810546875)"/>
<path d="M0 0 C0.72578751 -0.00857025 1.45157501 -0.0171405 2.19935608 -0.02597046 C3.72457737 -0.0373849 5.24990745 -0.03851096 6.77514648 -0.02978516 C9.08964287 -0.0234594 11.39902431 -0.07045565 13.71289062 -0.12109375 C27.11754286 -0.2453543 27.11754286 -0.2453543 32.33178711 4.66259766 C33.23682983 5.62238525 33.23682983 5.62238525 34.16015625 6.6015625 C34.95881104 7.35099121 35.75746582 8.10041992 36.58032227 8.87255859 C39.26307376 11.40069397 41.87095332 13.99025919 44.47265625 16.6015625 C45.36533203 17.478125 46.25800781 18.3546875 47.17773438 19.2578125 C48.03431641 20.11375 48.89089844 20.9696875 49.7734375 21.8515625 C50.54469971 22.61984375 51.31596191 23.388125 52.1105957 24.1796875 C57.53820642 30.5932549 57.61569126 36.19896287 57.59375 44.28125 C57.59899185 45.40798126 57.6042337 46.53471252 57.6096344 47.69558716 C57.61604537 50.07423073 57.61472964 52.45290605 57.60620117 54.83154297 C57.59770144 58.45728482 57.62645156 62.08144527 57.65820312 65.70703125 C57.65981562 68.02343703 57.65923668 70.33984558 57.65625 72.65625 C57.66748398 73.73357391 57.67871796 74.81089783 57.69029236 75.92086792 C57.63143044 82.3279389 56.89595568 87.27546893 53.16015625 92.6015625 C48.77242771 96.87678518 44.33672747 98.8362734 38.22143555 98.89208984 C37.26661789 98.90484955 36.31180023 98.91760925 35.32804871 98.93075562 C34.30713638 98.93298126 33.28622406 98.93520691 32.234375 98.9375 C31.17281693 98.9441568 30.11125885 98.9508136 29.01753235 98.95767212 C26.77415699 98.96778442 24.53075164 98.97248958 22.28735352 98.97216797 C18.87009596 98.97653383 15.45413797 99.01284984 12.03710938 99.05078125 C9.85286898 99.05665128 7.66862248 99.06061942 5.484375 99.0625 C4.46953537 99.07687103 3.45469574 99.09124207 2.40910339 99.10604858 C-4.50931924 99.06190051 -10.24103663 98.02872579 -15.39692688 93.1187439 C-19.54267635 88.37455143 -19.97047814 84.81367121 -20.03271484 78.68676758 C-20.04089233 77.98716919 -20.04906982 77.2875708 -20.05749512 76.56677246 C-20.08230459 74.25155482 -20.09885614 71.93639843 -20.11328125 69.62109375 C-20.11860493 68.82845312 -20.1239286 68.03581249 -20.1294136 67.21915245 C-20.15612947 63.02135562 -20.1755069 58.82358833 -20.18994141 54.62573242 C-20.20326439 51.15996817 -20.231088 47.69479498 -20.27197266 44.22924805 C-20.32142438 40.03709728 -20.34607788 35.84548134 -20.35316849 31.65305138 C-20.35986034 30.06031136 -20.37502846 28.46758231 -20.3990593 26.87500954 C-20.6182317 11.46749955 -20.6182317 11.46749955 -16.36894226 6.06092834 C-11.54328582 1.45534006 -6.64626797 -0.01775123 0 0 Z " fill="#FDFDFD" transform="translate(230.83984375,107.3984375)"/>
<path d="M0 0 C4.17967778 3.51763214 8.22225332 7.09662939 12.08984375 10.96044922 C12.54779327 11.41664642 13.0057428 11.87284363 13.47756958 12.34286499 C14.96671029 13.82766218 16.45223028 15.31601889 17.9375 16.8046875 C18.9867523 17.85326449 20.03615287 18.90169315 21.08569336 19.94998169 C23.27587869 22.13870008 25.46426448 24.32919748 27.65136719 26.52099609 C30.4349786 29.31029705 33.22304706 32.09509269 36.01249695 34.87855339 C38.17807139 37.04048893 40.34122721 39.20483194 42.50369263 41.36987686 C43.52986567 42.39671036 44.55676361 43.42282004 45.58444214 44.44814682 C50.65732424 49.51196405 55.61431437 54.61782386 60.28274536 60.06036377 C63.61012679 63.8186355 67.21027146 67.31105488 70.77734375 70.83984375 C71.58869278 71.64740616 72.40004181 72.45496857 73.23597717 73.28700256 C75.80072117 75.83962705 78.36870311 78.38895454 80.9375 80.9375 C84.34527177 84.31878895 87.74979143 87.70330354 91.15234375 91.08984375 C91.9397142 91.86891586 92.72708466 92.64798798 93.53831482 93.45066833 C94.2564888 94.16553909 94.97466278 94.88040985 95.71459961 95.61694336 C96.3507872 96.24789413 96.98697479 96.87884491 97.6424408 97.52891541 C99 99 99 99 99 100 C87.92527134 100.11604152 76.85068821 100.20479039 65.77547455 100.25906086 C60.63232389 100.28511304 55.48959033 100.32043112 50.34667969 100.37719727 C45.37996848 100.43167316 40.41365753 100.46145347 35.44667053 100.47438622 C33.55527957 100.48359816 31.66390959 100.50158716 29.77268982 100.52865028 C27.11556304 100.56514837 24.46007299 100.5699368 21.80273438 100.56762695 C21.02733307 100.58560333 20.25193176 100.60357971 19.45303345 100.62210083 C13.57632685 100.56711622 9.53894154 98.72881672 5 95 C0.50768282 89.240619 -0.14572569 84.8706066 -0.11352539 77.76489258 C-0.11367142 76.92564743 -0.11381744 76.08640228 -0.1139679 75.22172546 C-0.11327087 72.44596783 -0.10548829 69.67027718 -0.09765625 66.89453125 C-0.09579132 64.97067807 -0.09436777 63.04682441 -0.09336853 61.12297058 C-0.08954924 56.05785818 -0.07972394 50.99277442 -0.06866455 45.92767334 C-0.05843781 40.75972888 -0.0538682 35.59177979 -0.04882812 30.42382812 C-0.03810117 20.28253949 -0.02103177 10.14127213 0 0 Z " fill="#ECAA4B" transform="translate(312,75)"/>
<path d="M0 0 C5.61 0 11.22 0 17 0 C19.78660393 15.95578291 22.12896803 31.91084949 24 48 C25.91747888 46.08252112 25.73971428 42.74114783 26.12109375 40.17578125 C26.22591568 39.47793015 26.33073761 38.78007904 26.43873596 38.06108093 C26.77553342 35.81211285 27.10653599 33.56233316 27.4375 31.3125 C27.6565322 29.845648 27.87592925 28.37885043 28.09570312 26.91210938 C29.43515194 17.94677706 30.72633261 8.9749121 32 0 C37.61 0 43.22 0 49 0 C49 24.75 49 49.5 49 75 C45.37 75 41.74 75 38 75 C37.67 58.5 37.34 42 37 25 C36.401875 29.455 35.80375 33.91 35.1875 38.5 C33.74719748 49.06929615 32.15812748 59.55301345 30 70 C29.6662359 71.66658046 29.3327353 73.33321384 29 75 C25.7 75 22.4 75 19 75 C18.3951419 71.08343981 17.79125606 67.16673022 17.1875 63.25 C17.02185547 62.1775 16.85621094 61.105 16.68554688 60 C15.09413625 49.67084426 13.55035677 39.33571179 12 29 C11.67 44.18 11.34 59.36 11 75 C7.37 75 3.74 75 0 75 C0 50.25 0 25.5 0 0 Z " fill="#FEFBF7" transform="translate(147,251)"/>
<path d="M0 0 C0.72578751 -0.00857025 1.45157501 -0.0171405 2.19935608 -0.02597046 C3.72457737 -0.0373849 5.24990745 -0.03851096 6.77514648 -0.02978516 C9.08964287 -0.0234594 11.39902431 -0.07045565 13.71289062 -0.12109375 C27.11754286 -0.2453543 27.11754286 -0.2453543 32.33178711 4.66259766 C33.23682983 5.62238525 33.23682983 5.62238525 34.16015625 6.6015625 C34.95881104 7.35099121 35.75746582 8.10041992 36.58032227 8.87255859 C39.26307376 11.40069397 41.87095332 13.99025919 44.47265625 16.6015625 C45.36533203 17.478125 46.25800781 18.3546875 47.17773438 19.2578125 C48.03431641 20.11375 48.89089844 20.9696875 49.7734375 21.8515625 C50.54469971 22.61984375 51.31596191 23.388125 52.1105957 24.1796875 C57.53820642 30.5932549 57.61569126 36.19896287 57.59375 44.28125 C57.59899185 45.40798126 57.6042337 46.53471252 57.6096344 47.69558716 C57.61604537 50.07423073 57.61472964 52.45290605 57.60620117 54.83154297 C57.59770144 58.45728482 57.62645156 62.08144527 57.65820312 65.70703125 C57.65981562 68.02343703 57.65923668 70.33984558 57.65625 72.65625 C57.66748398 73.73357391 57.67871796 74.81089783 57.69029236 75.92086792 C57.63143044 82.3279389 56.89595568 87.27546893 53.16015625 92.6015625 C48.77242771 96.87678518 44.33672747 98.8362734 38.22143555 98.89208984 C37.26661789 98.90484955 36.31180023 98.91760925 35.32804871 98.93075562 C34.30713638 98.93298126 33.28622406 98.93520691 32.234375 98.9375 C31.17281693 98.9441568 30.11125885 98.9508136 29.01753235 98.95767212 C26.77415699 98.96778442 24.53075164 98.97248958 22.28735352 98.97216797 C18.87009596 98.97653383 15.45413797 99.01284984 12.03710938 99.05078125 C9.85286898 99.05665128 7.66862248 99.06061942 5.484375 99.0625 C4.46953537 99.07687103 3.45469574 99.09124207 2.40910339 99.10604858 C-4.50931924 99.06190051 -10.24103663 98.02872579 -15.39692688 93.1187439 C-19.54267635 88.37455143 -19.97047814 84.81367121 -20.03271484 78.68676758 C-20.04089233 77.98716919 -20.04906982 77.2875708 -20.05749512 76.56677246 C-20.08230459 74.25155482 -20.09885614 71.93639843 -20.11328125 69.62109375 C-20.11860493 68.82845312 -20.1239286 68.03581249 -20.1294136 67.21915245 C-20.15612947 63.02135562 -20.1755069 58.82358833 -20.18994141 54.62573242 C-20.20326439 51.15996817 -20.231088 47.69479498 -20.27197266 44.22924805 C-20.32142438 40.03709728 -20.34607788 35.84548134 -20.35316849 31.65305138 C-20.35986034 30.06031136 -20.37502846 28.46758231 -20.3990593 26.87500954 C-20.6182317 11.46749955 -20.6182317 11.46749955 -16.36894226 6.06092834 C-11.54328582 1.45534006 -6.64626797 -0.01775123 0 0 Z M-10.83984375 12.6015625 C-12.26650391 15.45488282 -11.98292068 17.89344523 -12.00097656 21.08325195 C-12.00594147 21.74850891 -12.01090637 22.41376587 -12.01602173 23.09918213 C-12.03064997 25.30441313 -12.03744701 27.50957216 -12.04296875 29.71484375 C-12.04872042 31.24700421 -12.05447815 32.77916465 -12.0602417 34.31132507 C-12.07075409 37.52680802 -12.07659494 40.74226595 -12.08007812 43.95776367 C-12.08555817 48.0736814 -12.10957442 52.18926753 -12.13805008 56.30508137 C-12.15669626 59.47156227 -12.16188314 62.63796369 -12.163414 65.80449486 C-12.16643747 67.321523 -12.17445573 68.83854985 -12.18759918 70.35552406 C-12.20469894 72.481167 -12.2027702 74.6060052 -12.19628906 76.73168945 C-12.19993469 77.94033157 -12.20358032 79.14897369 -12.20733643 80.39424133 C-11.79878447 83.95991058 -11.05011509 85.7926939 -8.83984375 88.6015625 C-5.97900342 90.55178772 -3.66253312 90.8563552 -0.24243164 90.8762207 C1.11433937 90.89051872 1.11433937 90.89051872 2.4985199 90.90510559 C3.95331505 90.90373848 3.95331505 90.90373848 5.4375 90.90234375 C6.94274986 90.90877144 6.94274986 90.90877144 8.47840881 90.91532898 C10.5991236 90.92106785 12.71985806 90.9215758 14.84057617 90.91723633 C18.0822107 90.91407755 21.32293148 90.93753739 24.56445312 90.96289062 C26.62630093 90.9651638 28.68815119 90.96586703 30.75 90.96484375 C31.7178392 90.9740535 32.68567841 90.98326324 33.68284607 90.99275208 C39.97789546 90.94955278 43.58390371 90.17781504 48.16015625 85.6015625 C48.45281112 83.21523626 48.45281112 83.21523626 48.38720703 80.41748047 C48.38698044 78.79602615 48.38698044 78.79602615 48.38674927 77.14181519 C48.3764267 75.97095367 48.36610413 74.80009216 48.35546875 73.59375 C48.35263885 72.39799347 48.34980896 71.20223694 48.34689331 69.97024536 C48.3356693 66.13891731 48.31056056 62.30782028 48.28515625 58.4765625 C48.27512933 55.88411795 48.26600298 53.29166975 48.2578125 50.69921875 C48.23572271 44.33325408 48.20222331 37.96742479 48.16015625 31.6015625 C44.29683706 29.4738372 40.81333924 29.20839457 36.47265625 29.0390625 C29.28148697 28.72289322 29.28148697 28.72289322 28.16015625 27.6015625 C27.92296882 23.9910428 27.76359944 20.38736501 27.64257812 16.77148438 C27.62672205 12.21180717 27.62672205 12.21180717 25.16015625 8.6015625 C20.79766169 8.17815751 16.42001548 8.22997116 12.03930664 8.23095703 C9.86589312 8.22659907 7.69453626 8.19033331 5.52148438 8.15234375 C4.13412151 8.14647235 2.74674902 8.14250512 1.359375 8.140625 C0.09955811 8.13240723 -1.16025879 8.12418945 -2.45825195 8.11572266 C-6.41010563 8.68349313 -8.03541969 9.81885304 -10.83984375 12.6015625 Z " fill="#363636" transform="translate(230.83984375,107.3984375)"/>
<path d="M0 0 C4.63874665 1.93143544 7.17717211 3.81803276 10 8 C12.25406589 14.76219767 12.33529211 24.34417909 9.125 30.8125 C7 34 7 34 5 36 C5.78375 36.721875 6.5675 37.44375 7.375 38.1875 C12.84191301 44.0449068 12.49980425 50.51488765 12.31640625 58.09765625 C11.80836693 64.36347452 10.12188239 67.93252485 5.5625 72.375 C-0.22469258 76.044927 -5.20716515 76.81679445 -12 76 C-16.74240756 74.64618451 -19.90563895 72.72079181 -22.4375 68.4375 C-24.73866901 63.37492817 -25.2421272 59.23907877 -25.3125 53.75 C-25.34150391 53.01136719 -25.37050781 52.27273438 -25.40039062 51.51171875 C-25.46547093 45.83471357 -24.15867848 42.71164657 -21 38 C-20.34 37.01 -19.68 36.02 -19 35 C-19.639375 34.236875 -20.27875 33.47375 -20.9375 32.6875 C-24.35750798 28.23112596 -24.24359816 24.0939976 -24.3125 18.6875 C-24.34150391 17.94048828 -24.37050781 17.19347656 -24.40039062 16.42382812 C-24.46092457 11.12012291 -23.45813478 8.23224936 -20 4 C-14.55796746 -1.44203254 -7.22214184 -0.91097471 0 0 Z " fill="#FEFCFA" transform="translate(313,251)"/>
<path d="M0 0 C3.96 0 7.92 0 12 0 C12.01981934 1.86769043 12.03963867 3.73538086 12.06005859 5.65966797 C12.12776086 11.82248445 12.2045306 17.98513542 12.28752708 24.14776421 C12.3375267 27.88509262 12.38385611 31.62239226 12.421875 35.35986328 C12.45868195 38.96504325 12.50502877 42.56998459 12.55806351 46.17496109 C12.57663202 47.55206248 12.59173088 48.92921506 12.60334396 50.30639267 C12.62016374 52.23154401 12.65033482 54.15656483 12.68115234 56.08154297 C12.69447601 57.17852509 12.70779968 58.2755072 12.7215271 59.4057312 C12.74281843 62.1612181 12.74281843 62.1612181 15 64 C18 64.41666667 18 64.41666667 21 64 C23.29522619 60.55716072 23.26778547 59.21105494 23.31884766 55.15161133 C23.33871735 53.9505928 23.35858704 52.74957428 23.37905884 51.51216125 C23.39061005 50.21521835 23.40216125 48.91827545 23.4140625 47.58203125 C23.43277377 46.24109199 23.45234716 44.9001645 23.4727478 43.55924988 C23.52407965 40.0329991 23.56369948 36.50671013 23.60089111 32.98028564 C23.64092432 29.38064115 23.69201974 25.78115561 23.7421875 22.18164062 C23.83895914 15.12120402 23.92233729 8.06067642 24 1 C27.63 1 31.26 1 35 1 C35.06963245 9.11052242 35.12287815 17.22091911 35.15543652 25.33166695 C35.17106606 29.09817214 35.19225424 32.86447221 35.22631836 36.63085938 C35.25900935 40.26835002 35.2768734 43.90564385 35.28463173 47.54327011 C35.29015785 48.92830374 35.30094905 50.31332709 35.31719017 51.69827652 C35.33909128 53.64395821 35.34022648 55.58983961 35.34057617 57.53564453 C35.34723801 58.64150909 35.35389984 59.74737366 35.36076355 60.88674927 C34.79195935 65.7953108 33.08809268 69.01806271 29.4375 72.3125 C23.60465298 76.35062486 16.83038407 75.74539343 10 75 C5.13732034 72.82151951 2.67665435 69.22505702 0.64224243 64.36729431 C-0.81787203 58.98533809 -0.3592207 53.28963033 -0.29296875 47.75390625 C-0.28736543 46.37386031 -0.28309881 44.99380835 -0.28010559 43.61375427 C-0.26871456 40.00183298 -0.23929805 36.39028025 -0.20599365 32.77850342 C-0.17516793 29.08480819 -0.16157369 25.39105273 -0.14648438 21.69726562 C-0.11442172 14.46465719 -0.06170203 7.23242744 0 0 Z " fill="#FEFDFA" transform="translate(246,251)"/>
<path d="M0 0 C1.27746094 -0.0103125 2.55492187 -0.020625 3.87109375 -0.03125 C8.90998942 0.6939244 12.03960542 2.76705099 15.375 6.5625 C17.83529456 10.57666481 17.75777141 14.20161611 17.8125 18.8125 C17.83828125 20.10800781 17.8640625 21.40351563 17.890625 22.73828125 C17.4025624 28.33357036 15.03813475 32.19683316 11.5625 36.5 C11.98837402 36.88422119 12.41424805 37.26844238 12.85302734 37.66430664 C17.14506755 41.98959416 18.29395182 45.12490982 18.28515625 51.18945312 C18.25292969 52.09630859 18.22070312 53.00316406 18.1875 53.9375 C18.19716797 55.29198242 18.19716797 55.29198242 18.20703125 56.67382812 C18.11108436 62.69667607 17.12267567 67.54426629 13.5625 72.5 C9.06878156 76.14309105 3.3031148 77.1223201 -2.37109375 76.81640625 C-8.70321912 75.84683696 -11.80937708 72.37205078 -15.4375 67.5 C-16.93906874 64.49686252 -16.53031204 61.70932478 -16.5 58.375 C-16.49097656 57.09367187 -16.48195312 55.81234375 -16.47265625 54.4921875 C-16.46105469 53.50476563 -16.44945312 52.51734375 -16.4375 51.5 C-12.8075 51.5 -9.1775 51.5 -5.4375 51.5 C-5.1075 55.79 -4.7775 60.08 -4.4375 64.5 C0.10779039 64.92091218 0.10779039 64.92091218 4.265625 63.453125 C6.23470102 60.48764906 6.03626637 57.50121118 6 54.0625 C6.01933594 52.74378906 6.03867188 51.42507813 6.05859375 50.06640625 C5.84994233 46.48465327 5.84994233 46.48465327 3.76953125 44.07421875 C0.79319953 41.95127772 -1.84226516 41.77655653 -5.4375 41.5 C-5.4375 38.2 -5.4375 34.9 -5.4375 31.5 C-3.12630208 31.04427083 -0.81510417 30.58854167 1.49609375 30.1328125 C2.17800781 29.92398437 2.85992187 29.71515625 3.5625 29.5 C5.04770725 26.52958551 4.7330822 23.80235553 4.75 20.5 C4.76417969 19.241875 4.77835938 17.98375 4.79296875 16.6875 C4.90513547 13.40645401 4.90513547 13.40645401 2.5625 11.5 C0.0625 11.16666667 0.0625 11.16666667 -2.4375 11.5 C-4.83513185 13.89763185 -4.78030586 14.83273498 -5.0625 18.125 C-5.18625 19.56875 -5.31 21.0125 -5.4375 22.5 C-9.0675 22.5 -12.6975 22.5 -16.4375 22.5 C-16.80638707 15.03003684 -16.98873272 10.5273082 -12.4375 4.5 C-8.39855915 0.49725037 -5.63150414 -0.04536962 0 0 Z " fill="#FEFDFA" transform="translate(220.4375,250.5)"/>
<path d="M0 0 C1.56736968 -0.02651626 3.13456795 -0.06734249 4.70117188 -0.12304688 C19.36754668 -0.63765652 19.36754668 -0.63765652 25.32763672 3.92871094 C27.38378906 5.84863281 27.38378906 5.84863281 28.74169922 7.45996094 C28.74169922 7.78996094 28.74169922 8.11996094 28.74169922 8.45996094 C22.85406397 9.2810407 17.10358094 9.50291428 11.15966797 9.38183594 C10.49242706 9.36922729 9.82518616 9.35661865 9.13772583 9.34362793 C6.36257007 9.28959945 3.5883114 9.23248168 0.81420898 9.13769531 C-1.23751241 9.07096492 -3.28778168 9.03633487 -5.34033203 9.00683594 C-6.54923096 8.97428711 -7.75812988 8.94173828 -9.00366211 8.90820312 C-13.29096952 9.63502893 -14.54207158 11.11624224 -17.25830078 14.45996094 C-18.00205398 17.58478856 -18.00205398 17.58478856 -17.8894043 21.02270508 C-17.90193741 22.33078629 -17.91447052 23.63886749 -17.92738342 24.98658752 C-17.91511604 26.40610758 -17.90169616 27.82561807 -17.88720703 29.24511719 C-17.88803617 30.70812659 -17.89049724 32.1711359 -17.89451599 33.63414001 C-17.89736997 36.69493773 -17.8827117 39.75500203 -17.85522461 42.81567383 C-17.82111087 46.73569833 -17.82717304 50.6544145 -17.84588718 54.57450199 C-17.8564626 57.59348936 -17.84751524 60.612173 -17.83250237 63.63113213 C-17.827326 65.07639094 -17.82779577 66.52168155 -17.83404732 67.96693611 C-17.83950612 69.98686968 -17.8162598 72.00681911 -17.79174805 74.02661133 C-17.78245018 75.74939049 -17.78245018 75.74939049 -17.77296448 77.50697327 C-17.14392916 81.11619136 -16.17710241 82.29908073 -13.25830078 84.45996094 C-10.39233819 84.90884664 -7.87678968 85.15421292 -5.00830078 85.20996094 C-3.89068359 85.25443359 -3.89068359 85.25443359 -2.75048828 85.29980469 C-0.92033406 85.37019523 0.91068691 85.41737926 2.74169922 85.45996094 C2.74169922 88.42996094 2.74169922 91.39996094 2.74169922 94.45996094 C-13.83650712 95.03603761 -13.83650712 95.03603761 -19.25830078 91.45996094 C-24.39834032 86.37873192 -26.37625812 83.2235875 -26.43530273 75.91821289 C-26.44187393 75.24641495 -26.44844513 74.574617 -26.45521545 73.88246155 C-26.47495877 71.6543873 -26.48661556 69.42638062 -26.49658203 67.19824219 C-26.50065756 66.43653402 -26.50473309 65.67482586 -26.50893211 64.89003563 C-26.52980099 60.85548549 -26.54409702 56.82096941 -26.5534668 52.78637695 C-26.56451052 48.62796074 -26.59888387 44.47008271 -26.6386385 40.31185627 C-26.66484921 37.10754943 -26.67316273 33.90336968 -26.67674828 30.69896507 C-26.68160572 29.16682504 -26.69319571 27.63469036 -26.71178627 26.10265541 C-26.88122971 11.20860136 -26.88122971 11.20860136 -22.25830078 5.45996094 C-15.65536648 -0.65983183 -8.4692485 0.10918973 0 0 Z " fill="#353535" transform="translate(203.25830078125,94.5400390625)"/>
<path d="M0 0 C3.39029367 0.67805873 4.40204918 1.76125249 6.5 4.5 C6.9609375 8.03125 6.9609375 8.03125 6.875 12 C6.86210937 13.3096875 6.84921875 14.619375 6.8359375 15.96875 C6.53571725 19.12455357 6.27833484 20.92709002 4.5 23.5 C1.67116253 24.91441874 -0.37376745 24.81900332 -3.5 24.5 C-6.22260001 22.01386995 -6.50547753 20.4526268 -6.93359375 16.75 C-6.95077222 15.33343689 -6.95161464 13.91659695 -6.9375 12.5 C-6.95748047 11.7884375 -6.97746094 11.076875 -6.99804688 10.34375 C-6.9947662 6.82686984 -6.77757187 4.86623261 -4.62890625 2.03125 C-2.5 0.5 -2.5 0.5 0 0 Z " fill="#EFAE4F" transform="translate(306.5,291.5)"/>
<path d="M0 0 C3.0625 2 3.0625 2 5 5 C5.83473726 9.24324772 6.03526145 11.40915835 3.66796875 15.046875 C1.86885183 17.1424604 -0.02435298 19.07056694 -2 21 C-2.60972656 21.65613281 -3.21945312 22.31226563 -3.84765625 22.98828125 C-9.60329341 29.09811147 -9.60329341 29.09811147 -14 30 C-17.34215434 29.79947074 -19.28237324 29.5980223 -21.875 27.4375 C-22.24625 26.963125 -22.6175 26.48875 -23 26 C-22.505 24.515 -22.505 24.515 -22 23 C-20.845 23.309375 -19.69 23.61875 -18.5 23.9375 C-15.60013008 24.31217346 -14.38118082 24.23484083 -11.86328125 22.68359375 C-9.807544 20.87062928 -7.90084024 18.97379359 -6 17 C-5.01 16.154375 -4.02 15.30875 -3 14.4375 C-0.69760577 12.09448098 -0.69760577 12.09448098 -0.6875 8.6875 C-0.790625 7.800625 -0.89375 6.91375 -1 6 C-2.74671588 5.20643199 -2.74671588 5.20643199 -5 5 C-5.78375 5.495 -6.5675 5.99 -7.375 6.5 C-10.70151962 8.40086835 -12.37238239 7.9279952 -16 7 C-11.27257828 0.80544741 -7.74463653 -1.28851221 0 0 Z " fill="#383838" transform="translate(265,147)"/>
<path d="M0 0 C2.4375 1.5 2.4375 1.5 4 3 C3.67 4.32 3.34 5.64 3 7 C2.443125 6.84660156 1.88625 6.69320312 1.3125 6.53515625 C-2.43979617 5.76821734 -4.90732366 5.33350498 -8.2734375 7.38671875 C-10.29384739 9.1780487 -12.16319172 11.02189877 -14 13 C-14.55429688 13.51949219 -15.10859375 14.03898438 -15.6796875 14.57421875 C-17.53174251 16.57421898 -17.72631239 18.33154584 -18 21 C-17.67 21.66 -17.34 22.32 -17 23 C-12.77817831 23.24652276 -12.77817831 23.24652276 -8.875 21.875 C-8.25625 21.58625 -7.6375 21.2975 -7 21 C-4.8828125 21.9453125 -4.8828125 21.9453125 -3 23 C-6.29298755 26.45763693 -9.16518528 29.41405014 -14.125 29.6875 C-18 29 -18 29 -21 27.0625 C-23.26437183 23.59518064 -23.96640966 21.57582189 -23.75390625 17.4765625 C-21.62552293 10.48487844 -14.61958049 5.27843691 -9 1 C-5.94306678 -0.52846661 -3.37015453 -0.23242445 0 0 Z " fill="#393939" transform="translate(252,159)"/>
<path d="M0 0 C3 0.4375 3 0.4375 4.66796875 1.4921875 C6.7081967 4.47175794 6.3947572 7.52216537 6.3125 11 C6.31572266 11.68513672 6.31894531 12.37027344 6.32226562 13.07617188 C6.26727586 18.17022414 6.26727586 18.17022414 4 20.4375 C0.5625 20.8125 0.5625 20.8125 -3 20.4375 C-5.32367237 18.18327071 -5.95201601 16.7837374 -6.3984375 13.5625 C-6.38683594 12.015625 -6.38683594 12.015625 -6.375 10.4375 C-6.38273437 9.40625 -6.39046875 8.375 -6.3984375 7.3125 C-5.77938211 2.84559054 -4.55786074 0.66468803 0 0 Z " fill="#EFAE50" transform="translate(306,260.5625)"/>
</svg>
